# xmcd CD database file
#
# Track frame offsets:
#	150
#	11906
#	26588
#	50332
#	68179
#	85376
#	102529
#	119866
#	150263
#	171567
#	194225
#	230554
#
# Disc length: 3339 seconds
#
# Revision: 0
# Processed by: cddbd v1.5.2PL0 Copyright (c) Steve Scherf et al.
# Submitted via: CDex 1.50beta9
#
DISCID=af0d090c
DTITLE=Jazz Orchestra Uni Regensburg - 1st CD
DYEAR=2004
DGENRE=Jazz
TTITLE0=A Tisket A Tasket
TTITLE1=Pennsilvania 6-5000
TTITLE2=Shiny Stockings
TTITLE3=All Of Me
TTITLE4=Hay Burner
TTITLE5=I Wish You Love
TTITLE6=Just Friends
TTITLE7=Good Morning Miss Marple
TTITLE8=Every Time You Smile That Smile
TTITLE9=Teach Me Tonight
TTITLE10=Heartland
TTITLE11=The Rose
EXTD=YEAR: 2004
EXTT0=
EXTT1=
EXTT2=
EXTT3=
EXTT4=
EXTT5=
EXTT6=
EXTT7=
EXTT8=
EXTT9=
EXTT10=
EXTT11=
PLAYORDER=
